<?xml version="1.0" encoding="iso-8859-1"?>
<!-- Generator: Adobe Illustrator 19.0.0, SVG Export Plug-In . SVG Version: 6.00 Build 0)  -->
<svg version="1.1" id="Layer_1" xmlns="http://www.w3.org/2000/svg" xmlns:xlink="http://www.w3.org/1999/xlink" x="0px" y="0px"
	 viewBox="0 0 512 512" style="enable-background:new 0 0 512 512;" xml:space="preserve">
<path style="fill:#DAEDE2;" d="M32.495,352.504v-44.324h414.912l-26.574,95.809c-6.305,22.751-27.009,38.49-50.617,38.49h-26.475
	H108.854H85.023c-29.007,0-52.528-23.509-52.528-52.516V352.504z"/>
<path d="M479.505,295.768h-32.098h-402.5V246.12V57.803c0-18.185,14.795-32.979,32.979-32.979c4.359,0,8.61,0.844,12.623,2.504
	c4.018,1.666,7.617,4.072,10.698,7.154l11.083,11.083l-5.348,5.348c-4.847,4.847-4.847,12.706,0,17.554
	c2.424,2.424,5.6,3.636,8.777,3.636c3.176,0,6.354-1.211,8.777-3.636l28.25-28.25c4.847-4.847,4.848-12.706,0-17.553
	c-4.848-4.847-12.706-4.847-17.553,0l-5.348,5.348L118.76,16.931c-5.396-5.397-11.702-9.613-18.755-12.537
	C92.961,1.477,85.517,0,77.886,0C46.013,0,20.083,25.93,20.083,57.803V246.12v62.061v81.783c0,33.894,26.116,61.789,59.283,64.666
	c-9.308,12.998-14.463,28.696-14.463,44.958c0,6.855,5.557,12.412,12.412,12.412s12.412-5.557,12.412-12.412
	c0-14.988,6.433-29.28,17.653-39.217l6.182-5.479h225.47l6.181,5.477c11.221,9.945,17.655,24.24,17.655,39.219
	c0,6.855,5.557,12.412,12.412,12.412s12.412-5.557,12.412-12.412c0-16.182-5.113-31.81-14.343-44.779
	c27.78-1.348,51.961-20.497,59.444-47.501l24.052-86.715h22.66c6.855,0,12.412-5.557,12.412-12.412
	C491.917,301.325,486.36,295.768,479.505,295.768z M408.871,400.676c-4.796,17.306-20.691,29.393-38.655,29.393H85.023
	c-22.12,0-40.116-17.99-40.116-40.104v-25.049h83.745c6.855,0,12.412-5.557,12.412-12.412s-5.557-12.412-12.412-12.412H44.907
	v-19.499h386.176L408.871,400.676z"/>
<path d="M166.72,364.916h8.068c6.855,0,12.412-5.557,12.412-12.412s-5.557-12.412-12.412-12.412h-8.068
	c-6.855,0-12.412,5.557-12.412,12.412S159.864,364.916,166.72,364.916z"/>
<g>
</g>
<g>
</g>
<g>
</g>
<g>
</g>
<g>
</g>
<g>
</g>
<g>
</g>
<g>
</g>
<g>
</g>
<g>
</g>
<g>
</g>
<g>
</g>
<g>
</g>
<g>
</g>
<g>
</g>
</svg>
